<?xml version="1.0" standalone="no"?>
<!DOCTYPE svg PUBLIC "-//W3C//DTD SVG 20010904//EN"
 "http://www.w3.org/TR/2001/REC-SVG-20010904/DTD/svg10.dtd">
<svg version="1.0" xmlns="http://www.w3.org/2000/svg"
 width="1209.000000pt" height="252.000000pt" viewBox="0 0 1209.000000 252.000000"
 preserveAspectRatio="xMidYMid meet">

<g transform="translate(0.000000,252.000000) scale(0.100000,-0.100000)"
fill="#ffffff" stroke="none">
<path d="M650 1749 c-30 -6 -69 -8 -87 -5 -61 9 -63 1 -63 -297 0 -171 -4
-267 -10 -267 -6 0 -10 -75 -10 -206 l0 -206 23 8 c28 10 167 10 232 0 45 -7
65 -3 202 44 165 56 261 111 301 170 21 31 23 43 18 100 -8 88 -44 158 -116
222 l-58 53 39 43 c36 39 39 46 33 80 -26 136 -131 225 -299 252 -110 18 -146
19 -205 9z m200 -154 c114 -18 137 -27 151 -59 10 -21 7 -31 -20 -70 -20 -29
-42 -48 -59 -52 -15 -3 -38 -10 -51 -15 -37 -15 -159 0 -165 20 -10 35 -17
161 -11 181 6 18 12 21 33 16 15 -4 70 -13 122 -21z m103 -369 c94 -16 127
-31 153 -71 16 -25 15 -27 -19 -78 l-35 -53 -140 -27 c-77 -15 -146 -27 -154
-27 -16 0 -28 92 -28 205 0 50 1 53 33 63 35 12 59 11 190 -12z"/>
<path d="M9224 1742 c-8 -5 -15 -117 -23 -357 -15 -482 -15 -589 4 -625 l16
-30 95 0 c57 0 107 5 127 14 l33 13 -2 197 c-2 156 0 196 10 196 14 0 61 -55
86 -101 8 -15 60 -76 115 -135 55 -59 105 -117 110 -128 6 -10 24 -27 41 -37
31 -17 32 -17 105 16 40 19 81 36 91 38 10 3 18 11 18 19 0 8 -99 113 -220
235 -121 121 -220 226 -220 233 0 18 55 83 192 229 65 68 118 132 118 141 0
26 -27 43 -65 43 -28 0 -51 -16 -157 -111 -241 -218 -222 -204 -252 -193 -19
8 -26 18 -26 38 -2 79 -19 293 -25 302 -7 12 -153 15 -171 3z"/>
<path d="M2318 1687 c-47 -25 -79 -49 -82 -62 -3 -11 -6 -72 -6 -135 0 -63 -9
-243 -20 -399 -14 -204 -16 -289 -9 -298 13 -15 182 -16 212 -1 15 8 17 30 17
246 0 130 -5 278 -11 327 -6 50 -10 97 -10 105 1 8 4 65 7 125 8 145 5 148
-98 92z"/>
<path d="M11478 1679 c-31 -12 -43 -58 -39 -157 1 -37 -4 -82 -14 -111 -15
-46 -19 -50 -78 -74 -34 -14 -80 -27 -103 -30 -50 -6 -178 -64 -222 -102 -18
-15 -41 -44 -51 -64 -23 -45 -45 -171 -36 -209 14 -65 106 -117 225 -127 41
-4 99 -13 127 -22 37 -11 64 -13 90 -7 21 5 89 9 151 9 88 0 115 4 122 15 13
20 13 367 0 375 -6 4 -10 97 -10 246 l0 240 -35 15 c-39 16 -87 17 -127 3z
m-70 -504 c2 -22 -2 -79 -8 -127 l-13 -87 -54 -7 c-30 -3 -80 -4 -111 0 -31 3
-70 7 -87 9 -41 3 -68 54 -62 117 7 63 34 82 143 104 49 9 105 21 124 26 56
13 65 9 68 -35z"/>
<path d="M7952 1633 c-27 -11 -42 -62 -42 -143 l0 -80 -57 -2 c-32 -1 -84 -2
-116 -3 -76 0 -93 -26 -66 -104 15 -43 35 -51 131 -51 l83 0 -3 -183 c-2 -130
1 -194 10 -222 l13 -39 131 -4 c72 -2 146 1 165 5 31 8 34 13 37 53 5 64 -4
88 -41 106 -17 9 -35 22 -39 28 -4 6 -8 68 -8 138 0 149 -8 141 133 137 l92
-3 -1 47 c0 26 -4 51 -10 56 -5 5 -62 13 -127 19 -65 6 -120 12 -122 14 -3 2
-7 49 -11 103 -9 132 -11 135 -82 134 -31 0 -63 -3 -70 -6z"/>
<path d="M1537 1623 c-10 -10 -8 -201 2 -207 5 -3 33 -1 64 4 35 7 70 7 97 1
70 -16 74 -11 85 91 7 66 7 67 -21 81 -50 25 -211 47 -227 30z"/>
<path d="M2837 1623 c-4 -3 -7 -53 -7 -110 l0 -103 43 7 c47 9 95 9 147 3 29
-4 36 -1 46 20 6 14 14 51 18 83 6 56 5 58 -21 68 -71 29 -210 48 -226 32z"/>
<path d="M6278 1624 c-10 -10 -10 -201 0 -207 4 -3 31 -1 60 5 36 6 70 6 100
-1 65 -14 79 2 84 94 l3 70 -53 17 c-59 20 -183 34 -194 22z"/>
<path d="M10277 1623 c-10 -10 -8 -201 2 -207 5 -3 33 -1 63 4 32 6 72 7 100
2 63 -12 75 -3 83 66 4 31 9 64 11 73 3 11 -8 21 -33 32 -64 28 -210 47 -226
30z"/>
<path d="M7155 1576 c-56 -18 -166 -74 -193 -100 -13 -11 -30 -33 -38 -48 -15
-29 -19 -115 -6 -135 12 -18 135 -103 150 -103 7 0 35 -21 62 -46 63 -59 68
-97 18 -118 -71 -30 -157 -49 -206 -44 l-50 5 5 -41 c8 -65 20 -72 101 -57 44
8 100 10 154 5 79 -6 90 -4 139 19 30 13 63 27 75 31 11 3 34 20 50 37 26 27
29 36 27 85 -4 82 -22 105 -124 155 -176 86 -223 183 -115 235 17 8 44 22 60
31 17 9 48 18 71 21 40 4 41 5 37 36 -3 17 -10 34 -16 38 -18 12 -158 8 -201
-6z"/>
<path d="M5331 1511 c-8 -5 -18 -37 -22 -71 -7 -51 -6 -67 9 -96 16 -32 17
-44 6 -137 -11 -95 -10 -106 9 -160 15 -43 27 -62 46 -70 14 -6 38 -19 54 -30
25 -17 29 -17 59 -3 20 11 43 14 64 10 30 -6 39 -1 92 50 57 54 92 70 92 43 0
-33 36 -48 106 -45 l69 3 3 147 c2 134 0 156 -24 240 -14 51 -31 98 -36 104
-13 18 -97 28 -113 14 -11 -9 -15 -49 -17 -172 l-3 -161 -50 -14 c-27 -7 -66
-16 -85 -19 -33 -6 -36 -4 -48 28 -6 19 -12 83 -13 144 0 78 -5 122 -17 154
l-18 45 -74 3 c-41 1 -81 -2 -89 -7z"/>
<path d="M3486 1488 c-13 -19 -16 -58 -16 -231 0 -115 4 -216 10 -226 8 -16
22 -18 105 -17 52 1 99 6 105 12 6 6 6 54 -1 133 -11 140 -11 141 57 141 23 0
59 7 79 16 38 15 38 15 62 -13 25 -30 26 -37 7 -210 -6 -59 -6 -62 17 -68 13
-3 67 -5 119 -3 l95 3 6 154 6 154 -30 56 c-48 90 -50 91 -137 91 -68 0 -90
-5 -171 -39 -52 -21 -97 -37 -101 -35 -4 3 -19 27 -34 54 l-27 50 -68 0 c-59
0 -70 -3 -83 -22z"/>
<path d="M4670 1457 c-164 -68 -255 -187 -253 -332 1 -73 22 -146 51 -178 18
-21 103 -61 149 -71 15 -4 79 1 142 9 62 9 115 15 117 13 10 -11 -17 -181 -34
-214 -26 -50 -55 -66 -176 -98 -124 -34 -136 -40 -136 -74 0 -39 17 -52 71
-52 50 0 238 44 279 65 46 24 109 99 141 169 l33 70 8 240 c6 169 6 261 -2
306 -6 36 -14 85 -18 110 -7 40 -10 45 -41 51 -26 6 -41 2 -62 -13 l-28 -21
-50 22 c-64 27 -122 26 -191 -2z m180 -130 c38 -19 59 -87 53 -177 -2 -41 -6
-85 -9 -97 -6 -29 -51 -43 -145 -43 -73 0 -79 2 -99 28 -61 77 45 302 143 302
18 0 43 -6 57 -13z"/>
<path d="M1655 1293 c-33 -2 -63 -7 -67 -11 -9 -10 -51 -469 -45 -486 5 -12
28 -13 124 -9 65 3 122 9 126 13 13 12 15 123 3 139 -6 7 -11 45 -12 85 -1 39
-5 113 -9 164 -7 87 -9 94 -32 103 -13 5 -25 8 -26 7 -1 -1 -29 -3 -62 -5z"/>
<path d="M2953 1292 c-34 -2 -66 -8 -71 -15 -11 -14 -47 -459 -39 -480 5 -13
24 -14 109 -10 154 6 145 2 145 75 1 35 -3 68 -8 74 -5 7 -12 83 -15 170 -3
87 -9 163 -15 170 -13 16 -34 19 -106 16z"/>
<path d="M6395 1292 c-33 -2 -63 -6 -67 -10 -10 -10 -37 -279 -40 -402 l-3
-95 110 3 c61 2 117 6 127 8 20 6 31 123 13 139 -8 6 -15 75 -21 179 l-9 170
-25 5 c-14 3 -52 5 -85 3z"/>
<path d="M10410 1293 c-90 -7 -87 -3 -94 -100 -4 -49 -14 -154 -21 -235 -8
-81 -12 -154 -9 -162 5 -12 24 -14 112 -10 157 8 147 2 147 76 0 35 -4 70 -10
78 -5 8 -10 49 -11 90 -1 41 -5 115 -9 163 -7 82 -9 89 -32 98 -13 5 -25 8
-26 7 -1 -1 -22 -3 -47 -5z"/>
</g>
</svg>
