<?xml version="1.0" standalone="no"?>
<!DOCTYPE svg PUBLIC "-//W3C//DTD SVG 20010904//EN"
 "http://www.w3.org/TR/2001/REC-SVG-20010904/DTD/svg10.dtd">
<svg version="1.0" xmlns="http://www.w3.org/2000/svg"
 width="1557.000000pt" height="337.000000pt" viewBox="0 0 1557.000000 337.000000"
 preserveAspectRatio="xMidYMid meet">

<g transform="translate(0.000000,337.000000) scale(0.100000,-0.100000)"
fill="#000000" stroke="none">
<path d="M490 2240 l0 -60 65 0 65 0 0 -755 0 -755 -65 0 -65 0 0 -55 0 -55
563 0 562 0 230 251 c127 139 231 255 233 259 1 4 -105 108 -237 231 -132 123
-240 228 -240 232 -1 4 68 84 152 178 83 94 153 174 155 179 3 9 -335 383
-362 402 -6 4 -246 8 -533 8 l-523 0 0 -60z m990 -385 l0 -325 -276 0 c-258 0
-275 1 -270 18 3 9 17 58 31 107 109 376 146 502 150 513 3 9 50 12 185 12
l180 0 0 -325z m90 -810 l0 -375 -440 0 c-317 0 -440 3 -440 11 0 10 192 689
205 727 3 9 80 12 340 12 l335 0 0 -375z"/>
<path d="M3017 2293 c-4 -3 -7 -28 -7 -54 l0 -48 83 -3 82 -3 3 -757 2 -758
-85 0 -85 0 0 -55 0 -55 220 0 220 0 0 55 0 55 -105 0 c-84 0 -105 3 -105 14
0 8 20 101 44 208 25 106 90 393 146 638 56 245 117 512 136 594 19 82 32 156
30 163 -4 10 -63 13 -289 13 -156 0 -287 -3 -290 -7z"/>
<path d="M11547 2293 c-4 -3 -7 -28 -7 -54 l0 -48 80 -3 80 -3 0 -755 0 -755
-80 -3 -81 -3 3 -52 3 -52 198 -3 197 -2 0 55 0 55 -90 0 -89 0 6 33 c3 17 23
95 42 172 l36 140 145 3 145 2 168 -168 c92 -93 167 -172 167 -176 0 -3 -33
-6 -73 -6 l-72 0 1 -52 2 -53 196 -3 196 -2 0 55 0 55 -90 0 -90 0 0 230 0
230 -110 0 c-72 0 -110 4 -110 11 0 6 81 122 180 257 99 136 180 250 180 255
0 4 -117 7 -260 7 l-260 0 0 -54 0 -55 38 -3 37 -3 3 -207 2 -208 -180 0
c-208 0 -192 -11 -160 116 11 43 67 273 125 509 57 237 111 453 119 482 12 45
12 52 -1 57 -21 8 -588 7 -596 -1z"/>
<path d="M14246 2291 c-3 -5 1 -28 8 -52 8 -24 33 -109 56 -189 23 -80 57
-196 76 -259 19 -62 34 -117 34 -122 0 -5 -72 -9 -159 -9 -123 0 -163 -3 -174
-14 -20 -20 -411 -506 -415 -515 -1 -4 89 -133 201 -287 l204 -279 426 -3 427
-2 0 55 0 55 -80 0 -80 0 2 758 3 757 78 3 78 3 -3 52 -3 52 -337 3 c-189 1
-339 -2 -342 -7z m208 -750 c8 -12 246 -843 246 -858 0 -10 -62 -13 -300 -13
l-300 0 0 433 c0 239 3 437 7 440 10 10 341 8 347 -2z"/>
<path d="M2410 2020 l0 -150 170 0 170 0 0 150 0 150 -170 0 -170 0 0 -150z"/>
<path d="M3950 2020 l0 -150 173 0 172 0 0 150 0 150 -172 0 -173 0 0 -150z"/>
<path d="M8720 2020 l0 -150 175 0 175 0 0 150 0 150 -175 0 -175 0 0 -150z"/>
<path d="M13070 2020 l0 -150 170 0 170 0 0 150 0 150 -170 0 -170 0 0 -150z"/>
<path d="M10750 1850 l0 -190 -94 0 -95 0 -3 28 c-3 24 -7 27 -43 27 l-40 0
-3 -112 -3 -113 46 0 c43 0 45 1 45 30 l0 31 93 -3 92 -3 3 -537 c1 -352 6
-538 12 -538 6 0 70 39 143 86 72 47 158 103 190 123 31 20 57 39 57 43 0 5
-70 8 -155 8 -113 0 -155 3 -155 12 0 6 25 95 55 197 31 102 64 215 75 251 11
36 39 130 63 210 l44 145 96 3 97 3 0 -31 c0 -29 2 -30 45 -30 l45 0 0 116 0
115 -42 -3 c-39 -3 -43 -6 -46 -30 l-3 -28 -99 0 -99 0 -152 190 c-84 105
-156 190 -161 190 -4 0 -8 -85 -8 -190z"/>
<path d="M2277 1653 c-4 -3 -7 -28 -7 -54 l0 -48 68 -3 67 -3 3 -437 2 -438
-85 0 -86 0 3 -52 3 -53 198 -3 197 -2 0 55 0 55 -75 0 c-41 0 -75 1 -75 3 0
3 40 120 214 631 64 186 116 343 116 347 0 10 -533 12 -543 2z"/>
<path d="M3817 1653 c-4 -3 -7 -28 -7 -55 l0 -48 70 0 70 0 0 -440 0 -440 -80
0 -80 0 0 -55 0 -55 195 0 195 0 0 55 0 55 -70 0 c-52 0 -70 3 -70 13 0 8 19
67 41 133 121 349 279 820 279 831 0 10 -56 13 -268 13 -148 0 -272 -3 -275
-7z"/>
<path d="M4570 1605 l0 -55 55 0 55 0 0 -440 0 -440 -65 0 -65 0 0 -55 0 -55
200 0 200 0 0 55 0 55 -90 0 c-70 0 -90 3 -90 14 0 7 48 153 106 322 58 170
121 356 141 414 19 58 40 111 45 118 6 6 25 12 43 12 18 0 37 -6 42 -12 9 -13
293 -846 293 -860 0 -5 -31 -8 -70 -8 l-70 0 0 -55 0 -55 200 0 200 0 0 55 0
54 -85 3 -86 3 1 476 c0 262 -2 484 -6 493 -6 14 -51 16 -480 16 l-474 0 0
-55z"/>
<path d="M6169 1623 c-43 -48 -393 -482 -397 -492 -1 -4 89 -133 201 -287
l204 -279 292 -5 292 -5 -61 -82 c-33 -45 -60 -85 -60 -88 0 -3 74 -5 165 -5
l165 0 0 228 -1 227 -24 -30 c-14 -16 -42 -53 -63 -82 l-37 -52 -94 -1 c-77 0
-92 2 -88 14 3 8 68 95 144 193 76 98 151 195 167 215 l28 37 -151 195 c-83
108 -154 202 -157 211 -5 13 6 15 68 15 l74 0 112 -145 c62 -80 117 -145 122
-145 11 0 14 358 4 384 -5 14 -54 16 -439 16 l-433 0 -33 -37z m411 -513 l0
-440 -190 0 -190 0 0 433 c0 239 3 437 7 440 3 4 89 7 190 7 l183 0 0 -440z"/>
<path d="M7260 1606 l0 -55 53 -3 52 -3 3 -492 2 -493 495 0 495 0 0 55 0 55
-55 0 -55 0 2 438 3 437 63 3 63 3 -3 52 -3 52 -244 3 c-135 1 -248 -1 -252
-5 -3 -5 8 -55 26 -113 25 -79 191 -603 269 -847 l7 -23 -365 0 c-318 0 -366
2 -366 15 0 8 39 133 86 277 151 459 224 686 224 692 0 3 -112 6 -250 6 l-250
0 0 -54z"/>
<path d="M8590 1605 l0 -54 68 -3 67 -3 0 -435 0 -435 -82 -3 -83 -3 0 -54 0
-55 200 0 200 0 0 55 0 55 -75 0 c-41 0 -75 4 -75 9 0 7 149 450 293 868 19
56 32 104 29 107 -3 3 -126 6 -274 6 l-268 0 0 -55z"/>
<path d="M9509 1514 c-96 -80 -176 -150 -178 -156 -2 -6 1 -13 7 -17 5 -3 65
-58 133 -122 68 -64 138 -128 155 -143 l32 -26 196 0 196 0 -2 -187 -3 -188
-214 -3 -213 -2 -97 95 c-54 52 -100 95 -104 95 -4 0 -7 -67 -7 -150 l0 -150
338 0 337 1 65 61 c36 33 112 105 169 160 l104 99 -39 32 c-21 18 -86 73 -144
122 -159 137 -125 125 -352 125 l-198 0 2 193 3 192 154 3 153 3 104 -103 105
-102 -3 154 -3 155 -261 3 -261 2 -174 -146z"/>
<path d="M12937 1653 c-4 -3 -7 -28 -7 -54 l0 -48 68 -3 67 -3 3 -437 2 -437
-82 -3 -83 -3 0 -50 0 -50 198 -3 197 -2 0 55 0 55 -75 0 c-41 0 -75 1 -75 3
0 1 39 115 86 252 157 460 244 718 244 727 0 9 -534 11 -543 1z"/>
</g>
</svg>
