<?xml version="1.0" standalone="no"?>
<!DOCTYPE svg PUBLIC "-//W3C//DTD SVG 20010904//EN"
 "http://www.w3.org/TR/2001/REC-SVG-20010904/DTD/svg10.dtd">
<svg version="1.0" xmlns="http://www.w3.org/2000/svg"
 width="223.000000pt" height="75.000000pt" viewBox="0 0 223.000000 75.000000"
 preserveAspectRatio="xMidYMid meet">

<g transform="translate(0.000000,75.000000) scale(0.100000,-0.100000)"
fill="#000000" stroke="none">
<path d="M328 519 c-22 -12 -23 -42 -3 -59 12 -10 21 -10 40 -2 29 13 32 34 9
56 -18 19 -23 19 -46 5z"/>
<path d="M432 518 c-8 -8 -12 -54 -12 -143 0 -117 2 -134 20 -152 26 -28 57
-38 75 -23 23 19 18 46 -11 65 l-27 17 7 113 c7 107 6 114 -13 124 -25 14 -24
14 -39 -1z"/>
<path d="M44 493 c-8 -29 2 -269 11 -284 9 -14 132 -11 170 5 18 8 38 23 44
34 16 30 13 83 -6 104 -14 15 -14 24 -5 54 23 75 -24 114 -137 114 -68 0 -71
-1 -77 -27z m136 -48 c20 -24 4 -45 -35 -45 -30 0 -35 3 -35 24 0 35 46 49 70
21z m29 -128 c20 -25 -9 -49 -54 -45 -35 3 -40 6 -43 31 -3 26 -1 27 41 27 25
0 49 -6 56 -13z"/>
<path d="M557 513 c-13 -12 -7 -51 9 -57 17 -7 54 9 54 24 0 33 -42 55 -63 33z"/>
<path d="M1400 505 c-28 -33 17 -69 50 -40 15 13 17 22 9 36 -12 23 -42 25
-59 4z"/>
<path d="M1746 495 c-3 -9 -6 -25 -6 -35 0 -12 -8 -20 -22 -22 -34 -5 -38 -55
-6 -60 20 -3 24 -10 30 -67 5 -44 14 -71 27 -84 33 -34 100 -23 101 16 0 5
-13 14 -30 20 -28 10 -30 15 -30 59 0 43 3 48 26 54 20 5 24 12 22 33 -2 18
-10 27 -25 29 -16 2 -23 11 -25 35 -2 26 -8 33 -29 35 -17 2 -29 -3 -33 -13z"/>
<path d="M322 418 c-7 -7 -12 -40 -11 -87 1 -103 9 -126 39 -126 l25 0 0 110
c0 103 -1 110 -20 113 -11 1 -26 -3 -33 -10z"/>
<path d="M557 423 c-13 -12 -8 -208 5 -221 16 -16 23 -15 42 4 12 11 16 35 16
88 0 106 -8 136 -35 136 -12 0 -25 -3 -28 -7z"/>
<path d="M656 413 c-17 -44 -1 -209 22 -218 28 -11 42 15 42 80 0 71 14 91 55
81 23 -6 25 -11 25 -65 0 -75 6 -91 36 -91 32 0 47 38 40 102 -11 96 -47 127
-146 126 -51 0 -70 -4 -74 -15z"/>
<path d="M949 415 c-27 -14 -59 -69 -59 -100 0 -25 27 -72 52 -89 12 -9 37
-16 55 -16 37 0 50 -14 32 -36 -8 -10 -27 -15 -53 -13 -60 3 -66 1 -66 -20 0
-41 74 -62 133 -38 54 23 67 58 67 181 0 101 -1 105 -26 125 -31 25 -96 27
-135 6z m91 -70 c20 -24 -5 -75 -36 -75 -32 0 -51 38 -35 69 14 25 53 28 71 6z"/>
<path d="M1147 423 c-4 -3 -7 -38 -7 -78 0 -63 3 -74 29 -105 28 -34 30 -34
107 -35 l79 0 0 110 0 110 -30 0 -30 0 -5 -73 c-5 -75 -17 -96 -49 -84 -25 9
-31 23 -31 72 0 68 -9 90 -34 90 -13 0 -26 -3 -29 -7z"/>
<path d="M1523 415 c-52 -37 -32 -106 37 -125 21 -6 42 -15 45 -20 10 -16 -14
-21 -56 -10 -77 21 -89 -31 -14 -59 48 -17 99 -7 125 26 38 49 17 93 -54 113
-55 15 -51 30 9 30 52 0 63 12 35 40 -24 24 -95 27 -127 5z"/>
<path d="M1396 405 c-3 -9 -6 -51 -6 -94 0 -84 13 -116 46 -109 17 3 19 12 19
108 l0 105 -26 3 c-17 2 -29 -3 -33 -13z"/>
<path d="M1951 291 c-26 -26 -27 -55 -1 -81 21 -21 37 -24 64 -14 26 10 18 23
-16 26 -25 2 -34 8 -36 24 -4 31 24 51 50 35 17 -11 19 -10 16 6 -5 27 -52 29
-77 4z"/>
<path d="M2079 303 c-21 -5 -29 -34 -22 -79 6 -39 23 -36 23 5 0 15 6 36 14
46 12 16 16 17 30 6 9 -8 16 -28 16 -47 0 -39 15 -45 24 -10 15 59 -25 95 -85
79z"/>
<path d="M1890 205 c0 -9 5 -15 11 -13 6 2 11 8 11 13 0 5 -5 11 -11 13 -6 2
-11 -4 -11 -13z"/>
</g>
</svg>
